#N canvas 375 36 1440 777 12;
#X obj 36 432 oscparse;
#X obj 36 465 list trim;
#X obj 36 495 route openbci;
#X obj 36 522 route 1 2 3 4 5 6 7 8, f 22;
#N canvas 0 22 450 278 (subpatch) 0;
#X array \$0-pickchan 15 float 3;
#A 0 0 1 2 3 4 5 6 7 6 5 4 3 2 1 0;
#X coords 0 8 15 0 200 140 1 0 0;
#X restore 31 36 graph;
#X obj 35 236 array set \$0-pickchan;
#N canvas 2056 270 600 497 counter 0;
#X obj 93 52 inlet;
#X obj 187 52 inlet;
#X obj 93 98 tgl 15 0 empty empty empty 17 7 0 10 -262144 -1 -1 1 1
;
#X obj 93 118 t f b;
#X floatatom 185 95 5 0 0 0 - - -;
#X msg 182 127 tempo \$1 permin;
#X obj 93 161 metro 0.25 120 permin;
#X msg 162 192 0;
#X obj 92 242 f;
#X obj 156 241 + 1;
#X obj 92 287 % 16;
#X obj 92 324 outlet;
#X text 233 93 BPM;
#X text 204 195 RESET;
#X text 17 6 So that the sequencer can count through the steps;
#X connect 0 0 2 0;
#X connect 1 0 4 0;
#X connect 2 0 3 0;
#X connect 3 0 6 0;
#X connect 3 1 7 0;
#X connect 4 0 5 0;
#X connect 5 0 6 0;
#X connect 6 0 8 0;
#X connect 7 0 8 1;
#X connect 8 0 9 0;
#X connect 8 0 10 0;
#X connect 9 0 8 1;
#X connect 10 0 11 0;
#X restore 264 87 pd counter;
#X obj 264 62 tgl 15 0 empty empty empty 17 7 0 10 -262144 -1 -1 1
1;
#X obj 265 116 hradio 15 1 0 14 empty empty empty 0 -8 0 10 -262130
-1 -1 12;
#X msg 338 166 1;
#X floatatom 265 167 5 0 0 0 - - -;
#X obj 265 192 + 0.5;
#X obj 265 231 int;
#X floatatom 265 269 5 0 0 0 - - -;
#X obj 266 489 select 0 1 2 3 4 5 6 7, f 58;
#X obj 316 516 bng 25 250 50 0 empty empty empty 17 7 0 10 -260097
-1 -1;
#X obj 266 516 bng 25 250 50 0 empty empty empty 17 7 0 10 -258113
-1 -1;
#X obj 366 516 bng 25 250 50 0 empty empty empty 17 7 0 10 -257985
-1 -1;
#X obj 417 516 bng 25 250 50 0 empty empty empty 17 7 0 10 -4034 -1
-1;
#X obj 517 515 bng 25 250 50 0 empty empty empty 17 7 0 10 -4160 -1
-1;
#X obj 467 516 bng 25 250 50 0 empty empty empty 17 7 0 10 -4032 -1
-1;
#X obj 569 514 bng 25 250 50 0 empty empty empty 17 7 0 10 -159808
-1 -1;
#X obj 618 514 bng 25 250 50 0 empty empty empty 17 7 0 10 -99865 -1
-1;
#X obj 265 137 array get \$0-pickchan;
#X obj 37 677 s chan1;
#X obj 76 626 == 0;
#X obj 37 651 spigot;
#X obj 138 626 == 0;
#X obj 99 651 spigot;
#X obj 99 676 s chan2;
#X obj 197 627 == 0;
#X obj 158 652 spigot;
#X obj 259 626 == 0;
#X obj 220 649 spigot;
#X obj 158 676 s chan3;
#X obj 220 675 s chan4;
#X obj 318 625 == 0;
#X obj 279 650 spigot;
#X obj 380 625 == 0;
#X obj 341 650 spigot;
#X obj 439 626 == 0;
#X obj 400 651 spigot;
#X obj 501 625 == 0;
#X obj 462 648 spigot;
#X obj 279 674 s chan5;
#X obj 341 675 s chan6;
#X obj 400 675 s chan7;
#X obj 462 674 s chan8;
#X msg 331 58 5;
#X msg 33 315 \; pd dsp \$1;
#X obj 33 266 tgl 30 0 empty empty empty 17 7 0 10 -162280 -1 -1 0
1;
#X msg 35 206 0 1 2 3 4 5 6 7 6 5 4 3 2 1 0;
#X obj 36 729 cnv 15 500 100 empty empty empty 20 12 0 14 -204800 -66577
0;
#N canvas 864 482 818 431 gemwin 0;
#X obj 132 136 gemwin;
#X obj 67 89 outlet;
#X obj 67 10 inlet;
#X obj 67 41 route create;
#X msg 67 70 set destroy;
#X msg 142 68 set create;
#X msg 341 76 create \, 1;
#X msg 198 112 destroy;
#X msg 58 188 dimen 1200 800 \, lighting 0 \, create \, 1;
#X connect 2 0 3 0;
#X connect 3 0 4 0;
#X connect 3 0 8 0;
#X connect 3 1 5 0;
#X connect 3 1 7 0;
#X connect 4 0 1 0;
#X connect 5 0 1 0;
#X connect 7 0 0 0;
#X connect 8 0 0 0;
#X restore 69 802 pd gemwin;
#X text 66 751 Create window:;
#X msg 70 773 create;
#N canvas 199 25 1241 777 makeshapes 1;
#X obj 475 100 gemhead;
#X obj 475 147 translateXYZ;
#X obj 475 200 part_head;
#X obj 474 250 part_source 20;
#X obj 473 385 part_killold;
#X obj 470 567 part_color, f 15;
#X floatatom 418 198 5 0 0 0 - - -;
#X obj 610 296 pack f f f f;
#X obj 624 231 t b f;
#X obj 689 232 t b f;
#X floatatom 624 198 5 0 0 0 - - -;
#X floatatom 689 198 5 0 0 0 - - -;
#X floatatom 575 198 5 0 0 0 - - -;
#X obj 787 533 pack f f f;
#X obj 831 476 t b f;
#X obj 893 476 t b f;
#X obj 832 446 / 255;
#X obj 902 444 / 255;
#X floatatom 902 420 5 0 0 0 - - -;
#X floatatom 832 423 5 0 0 0 - - -;
#X floatatom 784 443 5 0 0 0 - - -;
#X obj 782 473 / 255;
#X obj 584 498 pack f f f;
#X obj 633 465 t b f;
#X obj 695 465 t b f;
#X obj 470 608 part_render;
#X obj 467 789 sphere;
#X floatatom 719 694 5 0 0 0 - - -;
#X floatatom 755 745 5 0 0 0 - - -;
#X obj 473 328 part_velocity sphere;
#X obj 755 227 t b f;
#X floatatom 755 196 5 0 0 0 - - -;
#X obj 623 104 inlet;
#X obj 621 149 unpack f f f f;
#X obj 756 619 inlet;
#X obj 756 658 unpack f f f f;
#X floatatom 632 431 5 0 0 0 - - -;
#X floatatom 697 431 5 0 0 0 - - -;
#X floatatom 583 431 5 0 0 0 - - -;
#X obj 632 363 inlet;
#X obj 618 401 unpack f f f f;
#X obj 418 166 inlet;
#X floatatom 544 109 5 0 0 0 - - -;
#X connect 0 0 1 0;
#X connect 1 0 2 0;
#X connect 2 0 3 0;
#X connect 3 0 29 0;
#X connect 4 0 5 0;
#X connect 5 0 25 0;
#X connect 6 0 3 1;
#X connect 7 0 29 2;
#X connect 8 0 7 0;
#X connect 8 1 7 1;
#X connect 9 0 7 0;
#X connect 9 1 7 2;
#X connect 10 0 8 0;
#X connect 11 0 9 0;
#X connect 12 0 7 0;
#X connect 13 0 5 2;
#X connect 14 0 13 0;
#X connect 14 1 13 1;
#X connect 15 0 13 0;
#X connect 15 1 13 2;
#X connect 16 0 14 0;
#X connect 17 0 15 0;
#X connect 18 0 17 0;
#X connect 19 0 16 0;
#X connect 20 0 21 0;
#X connect 21 0 13 0;
#X connect 22 0 5 1;
#X connect 23 0 22 0;
#X connect 23 1 22 1;
#X connect 24 0 22 0;
#X connect 24 1 22 2;
#X connect 25 0 26 0;
#X connect 27 0 26 1;
#X connect 28 0 26 2;
#X connect 29 0 4 0;
#X connect 30 0 7 0;
#X connect 30 1 7 3;
#X connect 31 0 30 0;
#X connect 32 0 33 0;
#X connect 33 0 12 0;
#X connect 33 2 11 0;
#X connect 33 3 31 0;
#X connect 34 0 35 0;
#X connect 35 0 27 0;
#X connect 35 1 28 0;
#X connect 36 0 23 0;
#X connect 37 0 24 0;
#X connect 38 0 22 0;
#X connect 39 0 40 0;
#X connect 40 0 38 0;
#X connect 40 1 36 0;
#X connect 40 2 37 0;
#X connect 41 0 6 0;
#X connect 42 0 1 2;
#X restore 249 804 pd makeshapes;
#X obj 298 767 r bands;
#X obj 423 766 r bands;
#X obj 361 766 r bands;
#X obj 206 766 r deltanote;
#X obj 1246 20 cnv 15 600 500 empty empty empty 20 12 0 14 -261682
-66577 0;
#N canvas 0 25 1440 777 playspacemusic 1;
#X obj 177 301 random 300;
#X obj 177 344 + 50;
#X msg 176 382 0.75 \$1;
#X obj 176 421 line 0 1;
#X floatatom 176 464 5 0 0 0 - - -;
#X obj 176 497 sel 0;
#X obj 175 575 spigot;
#X obj 238 544 tgl 15 0 empty empty empty 17 7 0 10 -262144 -1 -1 1
1;
#X msg 239 515 0;
#X msg 288 530 1;
#X obj 289 502 delay 100;
#X obj 178 228 bng 15 250 50 0 empty empty empty 17 7 0 10 -262144
-1 -1;
#X obj 454 88 bng 30 250 50 0 empty empty empty 17 7 0 10 -258113 -1
-1;
#X obj 375 243 delay 5;
#X obj 375 276 delay 100;
#X obj 375 308 random 2000;
#X obj 375 341 + 100;
#X msg 375 375 0 \$1;
#X obj 753 124 bng 15 250 50 0 empty empty empty 17 7 0 10 -262144
-1 -1;
#X obj 946 251 random 88;
#X obj 490 325 mtof;
#X floatatom 490 356 5 0 0 0 - - -;
#X obj 665 318 mtof;
#X floatatom 665 356 5 0 0 0 - - -;
#X obj 946 286 + 21;
#X obj 947 326 mtof;
#X floatatom 947 364 5 0 0 0 - - -;
#X obj 666 408 osc~;
#X obj 815 375 random;
#X floatatom 815 416 5 0 0 0 - - -;
#X obj 666 482 *~;
#X obj 642 573 osc~ 200;
#X obj 642 526 +~;
#X obj 642 613 *~ 0;
#X obj 642 658 bp~ 100 3;
#X obj 581 712 throw~ left;
#X obj 686 712 throw~ right;
#X obj 792 711 throw~ delay;
#X obj 1177 278 catch~ delay;
#X obj 1177 315 lop~ 2000;
#X obj 1177 339 hip~ 600;
#X obj 1177 363 *~ 0.9;
#X obj 1177 393 delwrite~ delBuff 800;
#X obj 1033 452 delread~ delBuff 800;
#X obj 1189 451 delread~ delBuff 633;
#X obj 1033 488 throw~ left;
#X obj 1182 489 throw~ right;
#X obj 1295 487 throw~ delay;
#X obj 1156 588 catch~ left;
#X obj 1246 587 catch~ right;
#X obj 1203 645 dac~;
#X obj 175 627 delay 100;
#X obj 175 672 s EOC;
#X obj 454 45 r EOC;
#X text 277 209 Random AR Envelope;
#X text 484 167 Random carrier;
#X text 659 159 Random modulator;
#X text 945 214 Random filter;
#X text 1186 245 Delay;
#X text 1210 549 Output;
#X obj 491 194 inlet;
#X obj 490 294 spigot;
#X floatatom 491 221 5 0 0 0 - - -;
#X obj 543 219 * 0;
#X msg 543 242 \$1;
#X obj 543 266 tgl 15 0 empty empty empty 17 7 0 10 -262144 -1 -1 1
1;
#X msg 579 241 1;
#X obj 653 176 inlet;
#X obj 652 278 spigot;
#X floatatom 653 205 5 0 0 0 - - -;
#X obj 705 203 * 0;
#X msg 705 226 \$1;
#X obj 705 250 tgl 15 0 empty empty empty 17 7 0 10 -262144 -1 -1 1
1;
#X msg 740 225 1;
#X connect 0 0 1 0;
#X connect 1 0 2 0;
#X connect 2 0 3 0;
#X connect 3 0 4 0;
#X connect 3 0 33 1;
#X connect 4 0 5 0;
#X connect 5 0 6 0;
#X connect 6 0 8 0;
#X connect 6 0 51 0;
#X connect 7 0 6 1;
#X connect 8 0 7 0;
#X connect 9 0 7 0;
#X connect 10 0 9 0;
#X connect 11 0 0 0;
#X connect 11 0 13 0;
#X connect 12 0 11 0;
#X connect 12 0 10 0;
#X connect 12 0 18 0;
#X connect 13 0 14 0;
#X connect 14 0 15 0;
#X connect 15 0 16 0;
#X connect 16 0 17 0;
#X connect 17 0 3 0;
#X connect 18 0 28 0;
#X connect 18 0 66 0;
#X connect 18 0 73 0;
#X connect 18 0 19 0;
#X connect 19 0 24 0;
#X connect 20 0 21 0;
#X connect 21 0 28 1;
#X connect 21 0 32 0;
#X connect 22 0 23 0;
#X connect 23 0 27 0;
#X connect 24 0 25 0;
#X connect 25 0 26 0;
#X connect 26 0 34 1;
#X connect 27 0 30 0;
#X connect 28 0 29 0;
#X connect 29 0 30 1;
#X connect 30 0 32 1;
#X connect 31 0 33 0;
#X connect 32 0 31 0;
#X connect 33 0 34 0;
#X connect 34 0 35 0;
#X connect 34 0 36 0;
#X connect 34 0 37 0;
#X connect 38 0 39 0;
#X connect 39 0 40 0;
#X connect 40 0 41 0;
#X connect 41 0 42 0;
#X connect 43 0 45 0;
#X connect 44 0 46 0;
#X connect 44 0 47 0;
#X connect 48 0 50 0;
#X connect 49 0 50 1;
#X connect 51 0 52 0;
#X connect 53 0 12 0;
#X connect 60 0 62 0;
#X connect 61 0 20 0;
#X connect 61 0 63 0;
#X connect 62 0 61 0;
#X connect 63 0 64 0;
#X connect 64 0 65 0;
#X connect 65 0 61 1;
#X connect 66 0 65 0;
#X connect 67 0 69 0;
#X connect 68 0 70 0;
#X connect 68 0 22 0;
#X connect 69 0 68 0;
#X connect 70 0 71 0;
#X connect 71 0 72 0;
#X connect 72 0 68 1;
#X connect 73 0 72 0;
#X restore 1526 491 pd playspacemusic;
#N canvas 2056 270 600 497 counter 0;
#X obj 93 52 inlet;
#X obj 187 52 inlet;
#X obj 93 98 tgl 15 0 empty empty empty 17 7 0 10 -262144 -1 -1 0 1
;
#X obj 93 118 t f b;
#X floatatom 185 95 5 0 0 0 - - -;
#X msg 182 127 tempo \$1 permin;
#X obj 93 161 metro 0.25 120 permin;
#X msg 162 192 0;
#X obj 92 242 f;
#X obj 156 241 + 1;
#X obj 92 287 % 16;
#X obj 92 324 outlet;
#X text 233 93 BPM;
#X text 204 195 RESET;
#X text 17 6 So that the sequencer can count through the steps;
#X connect 0 0 2 0;
#X connect 1 0 4 0;
#X connect 2 0 3 0;
#X connect 3 0 6 0;
#X connect 3 1 7 0;
#X connect 4 0 5 0;
#X connect 5 0 6 0;
#X connect 6 0 8 0;
#X connect 7 0 8 1;
#X connect 8 0 9 0;
#X connect 8 0 10 0;
#X connect 9 0 8 1;
#X connect 10 0 11 0;
#X restore 1379 65 pd counter;
#X obj 1379 39 tgl 15 0 empty empty empty 17 7 0 10 -262144 -1 -1 0
1;
#X obj 1379 94 hradio 15 1 0 12 empty empty empty 0 -8 0 10 -262130
-1 -1 9;
#X msg 1461 115 1;
#X floatatom 1379 168 5 0 0 0 - - -;
#X obj 1379 193 + 0.5;
#X obj 1379 232 int;
#X floatatom 1379 270 5 0 0 0 - - -;
#X obj 1379 329 bng 25 250 50 0 empty empty empty 17 7 0 10 -262130
-1 -1;
#X obj 1463 328 bng 25 250 50 0 empty empty empty 17 7 0 10 -204800
-1 -1;
#X obj 1608 327 bng 25 250 50 0 empty empty empty 17 7 0 10 -204786
-1 -1;
#X obj 1748 325 bng 25 250 50 0 empty empty empty 17 7 0 10 -203904
-1 -1;
#X obj 1379 138 array get \$0-tsteps;
#X obj 1379 300 select 0 1 2 3, f 58;
#X obj 1256 369 value deltanote;
#X obj 1401 369 value thetanote;
#X obj 1465 396 value alphanote;
#X obj 1550 363 value alphanote;
#X obj 1727 393 value deltanote;
#X obj 1682 363 value betanote;
#N canvas 0 22 450 278 (subpatch) 0;
#X array \$0-tsteps 12 float 3;
#A 0 0 1 2 3 3 2 1 0 0 1 2 3;
#X coords 0 4 12 0 200 140 1 0 0;
#X restore 1589 47 graph;
#X msg 1592 224 0 1 2 3 3 2 1 0 0 1 2 3;
#X obj 1593 259 array set \$0-tsteps;
#X msg 1446 31 60;
#X obj 1354 396 value thetanote;
#X obj 1614 394 value betanote;
#X obj 693 19 cnv 15 550 600 empty empty empty 20 12 0 14 -233017 -66577
0;
#N canvas 189 269 371 554 avgdelta 0;
#X obj 137 39 inlet;
#X floatatom 136 139 5 0 0 0 - - -;
#X obj 136 188 sig~;
#X msg 211 129 bang;
#X obj 208 225 bng 25 250 50 0 empty empty empty 17 7 0 10 -262144
-1 -1;
#X obj 133 328 avg~;
#X floatatom 133 366 5 0 0 0 - - -;
#X obj 131 411 snapshot~;
#X obj 131 486 outlet;
#X floatatom 131 453 5 0 0 0 - - -;
#X msg 267 128 stop;
#X obj 210 171 metro 500;
#X obj 215 41 inlet;
#X obj 215 65 moses 1;
#X connect 0 0 1 0;
#X connect 1 0 2 0;
#X connect 2 0 5 0;
#X connect 3 0 11 0;
#X connect 4 0 5 0;
#X connect 4 0 7 0;
#X connect 5 0 6 0;
#X connect 6 0 7 0;
#X connect 7 0 9 0;
#X connect 9 0 8 0;
#X connect 10 0 11 0;
#X connect 11 0 4 0;
#X connect 12 0 13 0;
#X connect 13 0 10 0;
#X connect 13 1 3 0;
#X restore 808 181 pd avgdelta;
#X floatatom 810 207 5 0 0 0 - - -;
#X obj 810 333 vsl 25 100 0 1 0 0 empty empty empty 0 -9 0 10 -204786
-1 -1 2436 1;
#N canvas 368 300 450 495 normdelta 0;
#X obj 176 49 inlet;
#X obj 176 101 steady 20;
#X floatatom 128 146 5 0 0 0 - - -;
#X floatatom 180 146 5 0 0 0 - - -;
#X floatatom 242 146 5 0 0 0 - - -;
#X obj 202 197 -;
#X obj 127 198 -;
#X obj 161 303 /;
#X floatatom 127 239 5 0 0 0 - - -;
#X floatatom 202 238 5 0 0 0 - - -;
#X floatatom 161 350 5 0 0 0 - - -;
#X obj 161 391 outlet;
#X obj 134 58 bng 15 250 50 0 empty empty empty 17 7 0 10 -262144 -1
-1;
#X obj 134 13 inlet;
#X connect 0 0 1 0;
#X connect 1 0 2 0;
#X connect 1 1 3 0;
#X connect 1 2 4 0;
#X connect 2 0 6 0;
#X connect 3 0 5 1;
#X connect 3 0 6 1;
#X connect 4 0 5 0;
#X connect 5 0 9 0;
#X connect 6 0 8 0;
#X connect 7 0 10 0;
#X connect 8 0 7 1;
#X connect 9 0 7 0;
#X connect 10 0 11 0;
#X connect 12 0 1 0;
#X connect 13 0 12 0;
#X restore 810 241 pd normdelta;
#X floatatom 810 265 5 0 0 0 - - -;
#N canvas 160 289 450 551 avgtheta 0;
#X obj 137 39 inlet;
#X floatatom 136 139 5 0 0 0 - - -;
#X obj 136 188 sig~;
#X msg 211 129 bang;
#X obj 208 225 bng 25 250 50 0 empty empty empty 17 7 0 10 -262144
-1 -1;
#X obj 133 328 avg~;
#X floatatom 133 366 5 0 0 0 - - -;
#X obj 131 411 snapshot~;
#X obj 131 486 outlet;
#X floatatom 131 453 5 0 0 0 - - -;
#X msg 266 128 stop;
#X obj 210 171 metro 500;
#X obj 215 41 inlet;
#X obj 215 65 moses 1;
#X connect 0 0 1 0;
#X connect 1 0 2 0;
#X connect 2 0 5 0;
#X connect 3 0 11 0;
#X connect 4 0 5 0;
#X connect 4 0 7 0;
#X connect 5 0 6 0;
#X connect 6 0 7 0;
#X connect 7 0 9 0;
#X connect 9 0 8 0;
#X connect 10 0 11 0;
#X connect 11 0 4 0;
#X connect 12 0 13 0;
#X connect 13 0 10 0;
#X connect 13 1 3 0;
#X restore 906 181 pd avgtheta;
#X floatatom 908 206 5 0 0 0 - - -;
#N canvas 295 359 450 519 normtheta 0;
#X obj 176 49 inlet;
#X obj 176 101 steady 20;
#X floatatom 128 146 5 0 0 0 - - -;
#X floatatom 180 146 5 0 0 0 - - -;
#X floatatom 242 146 5 0 0 0 - - -;
#X obj 202 197 -;
#X obj 127 198 -;
#X obj 161 303 /;
#X floatatom 127 239 5 0 0 0 - - -;
#X floatatom 202 238 5 0 0 0 - - -;
#X floatatom 161 350 5 0 0 0 - - -;
#X obj 161 391 outlet;
#X obj 139 63 bng 15 250 50 0 empty empty empty 17 7 0 10 -262144 -1
-1;
#X obj 139 18 inlet;
#X connect 0 0 1 0;
#X connect 1 0 2 0;
#X connect 1 1 3 0;
#X connect 1 2 4 0;
#X connect 2 0 6 0;
#X connect 3 0 5 1;
#X connect 3 0 6 1;
#X connect 4 0 5 0;
#X connect 5 0 9 0;
#X connect 6 0 8 0;
#X connect 7 0 10 0;
#X connect 8 0 7 1;
#X connect 9 0 7 0;
#X connect 10 0 11 0;
#X connect 12 0 1 0;
#X connect 13 0 12 0;
#X restore 908 240 pd normtheta;
#X obj 908 337 vsl 25 100 0 1 0 0 empty empty empty 0 -9 0 10 -262130
-1 -1 1380 1;
#X floatatom 908 265 5 0 0 0 - - -;
#N canvas 207 136 476 657 avgalpha 0;
#X obj 137 39 inlet;
#X floatatom 136 139 5 0 0 0 - - -;
#X obj 136 188 sig~;
#X msg 211 129 bang;
#X obj 208 225 bng 25 250 50 0 empty empty empty 17 7 0 10 -262144
-1 -1;
#X obj 133 328 avg~;
#X floatatom 133 366 5 0 0 0 - - -;
#X obj 132 409 snapshot~;
#X obj 132 473 outlet;
#X floatatom 132 441 5 0 0 0 - - -;
#X msg 266 128 stop;
#X obj 210 171 metro 500;
#X obj 215 41 inlet;
#X obj 215 65 moses 1;
#X connect 0 0 1 0;
#X connect 1 0 2 0;
#X connect 2 0 5 0;
#X connect 3 0 11 0;
#X connect 4 0 5 0;
#X connect 4 0 7 0;
#X connect 5 0 6 0;
#X connect 6 0 7 0;
#X connect 7 0 9 0;
#X connect 9 0 8 0;
#X connect 10 0 11 0;
#X connect 11 0 4 0;
#X connect 12 0 13 0;
#X connect 13 0 10 0;
#X connect 13 1 3 0;
#X restore 997 182 pd avgalpha;
#N canvas 268 297 450 567 normalpha 0;
#X obj 176 49 inlet;
#X obj 176 101 steady 20;
#X floatatom 128 146 5 0 0 0 - - -;
#X floatatom 180 146 5 0 0 0 - - -;
#X floatatom 242 146 5 0 0 0 - - -;
#X obj 202 197 -;
#X obj 127 198 -;
#X obj 161 303 /;
#X floatatom 127 239 5 0 0 0 - - -;
#X floatatom 202 238 5 0 0 0 - - -;
#X floatatom 161 350 5 0 0 0 - - -;
#X obj 161 391 outlet;
#X obj 141 61 bng 15 250 50 0 empty empty empty 17 7 0 10 -262144 -1
-1;
#X obj 127 13 inlet;
#X connect 0 0 1 0;
#X connect 1 0 2 0;
#X connect 1 1 3 0;
#X connect 1 2 4 0;
#X connect 2 0 6 0;
#X connect 3 0 5 1;
#X connect 3 0 6 1;
#X connect 4 0 5 0;
#X connect 5 0 9 0;
#X connect 6 0 8 0;
#X connect 7 0 10 0;
#X connect 8 0 7 1;
#X connect 9 0 7 0;
#X connect 10 0 11 0;
#X connect 12 0 1 0;
#X connect 13 0 12 0;
#X restore 1000 239 pd normalpha;
#X floatatom 1000 264 5 0 0 0 - - -;
#X floatatom 999 206 5 0 0 0 - - -;
#X obj 1000 336 vsl 25 100 0 1 0 0 empty empty empty 0 -9 0 10 -203904
-1 -1 153 1;
#N canvas 220 143 450 716 avgbeta 0;
#X obj 137 39 inlet;
#X floatatom 136 139 5 0 0 0 - - -;
#X obj 136 188 sig~;
#X obj 208 225 bng 25 250 50 0 empty empty empty 17 7 0 10 -262144
-1 -1;
#X obj 133 328 avg~;
#X floatatom 133 366 5 0 0 0 - - -;
#X obj 131 411 snapshot~;
#X obj 131 486 outlet;
#X floatatom 131 453 5 0 0 0 - - -;
#X msg 209 126 bang;
#X msg 265 125 stop;
#X obj 210 171 metro 500;
#X obj 215 41 inlet;
#X obj 215 65 moses 1;
#X connect 0 0 1 0;
#X connect 1 0 2 0;
#X connect 2 0 4 0;
#X connect 3 0 4 0;
#X connect 3 0 6 0;
#X connect 4 0 5 0;
#X connect 5 0 6 0;
#X connect 6 0 8 0;
#X connect 8 0 7 0;
#X connect 9 0 11 0;
#X connect 10 0 11 0;
#X connect 11 0 3 0;
#X connect 12 0 13 0;
#X connect 13 0 10 0;
#X connect 13 1 9 0;
#X restore 1092 180 pd avgbeta;
#X floatatom 1094 207 5 0 0 0 - - -;
#N canvas 231 174 450 671 normbeta 0;
#X obj 176 49 inlet;
#X obj 176 101 steady 20;
#X floatatom 128 146 5 0 0 0 - - -;
#X floatatom 180 146 5 0 0 0 - - -;
#X floatatom 242 146 5 0 0 0 - - -;
#X obj 202 197 -;
#X obj 127 198 -;
#X obj 161 303 /;
#X floatatom 127 239 5 0 0 0 - - -;
#X floatatom 202 238 5 0 0 0 - - -;
#X floatatom 161 350 5 0 0 0 - - -;
#X obj 161 391 outlet;
#X obj 132 66 bng 15 250 50 0 empty empty empty 17 7 0 10 -262144 -1
-1;
#X obj 132 35 inlet;
#X connect 0 0 1 0;
#X connect 1 0 2 0;
#X connect 1 1 3 0;
#X connect 1 2 4 0;
#X connect 2 0 6 0;
#X connect 3 0 5 1;
#X connect 3 0 6 1;
#X connect 4 0 5 0;
#X connect 5 0 9 0;
#X connect 6 0 8 0;
#X connect 7 0 10 0;
#X connect 8 0 7 1;
#X connect 9 0 7 0;
#X connect 10 0 11 0;
#X connect 12 0 1 0;
#X connect 13 0 12 0;
#X restore 1095 238 pd normbeta;
#X floatatom 1095 265 5 0 0 0 - - -;
#X obj 1095 337 vsl 25 100 0 1 0 0 empty empty empty 0 -9 0 10 -261234
-1 -1 1346 1;
#X floatatom 810 447 5 0 0 0 - - -;
#X floatatom 908 448 5 0 0 0 - - -;
#X floatatom 1000 447 5 0 0 0 - - -;
#X floatatom 1095 444 5 0 0 0 - - -;
#X obj 810 301 clip 0 1;
#X obj 908 301 clip 0 1;
#X obj 1000 299 clip 0 1;
#X obj 1095 300 clip 0 1;
#X floatatom 747 504 5 0 0 0 - - -;
#X floatatom 872 503 5 0 0 0 - - -;
#X floatatom 991 503 5 0 0 0 - - -;
#X floatatom 1114 501 5 0 0 0 - - -;
#X obj 747 475 notescale 36 108;
#X obj 872 475 notescale 36 108;
#X obj 991 475 notescale 36 108;
#X obj 1114 473 notescale 36 108;
#X obj 747 533 s deltanote;
#X obj 872 533 s thetanote;
#X obj 991 532 s alphanote;
#X obj 1114 531 s betanote;
#X obj 767 218 tgl 20 0 empty empty empty 17 7 0 10 -191407 -1 -1 1
1;
#X obj 881 97 unpack f f f f;
#X obj 750 38 r chan1;
#X obj 810 38 r chan2;
#X obj 869 38 r chan3;
#X obj 931 37 r chan4;
#X obj 990 37 r chan5;
#X obj 1052 37 r chan6;
#X obj 1110 37 r chan7;
#X obj 1168 37 r chan8;
#X floatatom 826 146 5 0 0 0 - - -;
#X floatatom 891 145 5 0 0 0 - - -;
#X floatatom 947 144 5 0 0 0 - - -;
#X floatatom 1012 144 5 0 0 0 - - -;
#X obj 699 334 pack f f f f;
#X obj 700 359 s bands;
#X obj 763 148 tgl 20 0 empty empty empty 17 7 0 10 -128992 -1 -1 1
1;
#X obj 35 364 tgl 15 0 empty empty empty 17 7 0 10 -262144 -1 -1 1
1;
#X obj 37 403 netreceive -u -b 12345;
#X connect 0 0 1 0;
#X connect 1 0 2 0;
#X connect 2 0 3 0;
#X connect 3 0 26 0;
#X connect 3 1 28 0;
#X connect 3 2 31 0;
#X connect 3 3 33 0;
#X connect 3 4 37 0;
#X connect 3 5 39 0;
#X connect 3 6 41 0;
#X connect 3 7 43 0;
#X connect 6 0 8 0;
#X connect 7 0 6 0;
#X connect 8 0 23 0;
#X connect 9 0 23 1;
#X connect 10 0 11 0;
#X connect 11 0 12 0;
#X connect 12 0 13 0;
#X connect 13 0 14 0;
#X connect 14 0 16 0;
#X connect 14 1 15 0;
#X connect 14 2 17 0;
#X connect 14 3 18 0;
#X connect 14 4 20 0;
#X connect 14 5 19 0;
#X connect 14 6 21 0;
#X connect 14 7 22 0;
#X connect 15 0 27 0;
#X connect 16 0 25 0;
#X connect 17 0 30 0;
#X connect 18 0 32 0;
#X connect 19 0 38 0;
#X connect 20 0 36 0;
#X connect 21 0 40 0;
#X connect 22 0 42 0;
#X connect 23 0 10 0;
#X connect 25 0 26 1;
#X connect 26 0 24 0;
#X connect 27 0 28 1;
#X connect 28 0 29 0;
#X connect 30 0 31 1;
#X connect 31 0 34 0;
#X connect 32 0 33 1;
#X connect 33 0 35 0;
#X connect 36 0 37 1;
#X connect 37 0 44 0;
#X connect 38 0 39 1;
#X connect 39 0 45 0;
#X connect 40 0 41 1;
#X connect 41 0 46 0;
#X connect 42 0 43 1;
#X connect 43 0 47 0;
#X connect 48 0 6 1;
#X connect 50 0 49 0;
#X connect 51 0 5 0;
#X connect 53 0 55 0;
#X connect 55 0 53 0;
#X connect 57 0 56 1;
#X connect 58 0 56 3;
#X connect 59 0 56 2;
#X connect 60 0 56 0;
#X connect 63 0 65 0;
#X connect 64 0 63 0;
#X connect 65 0 75 0;
#X connect 66 0 75 1;
#X connect 67 0 68 0;
#X connect 68 0 69 0;
#X connect 69 0 70 0;
#X connect 70 0 76 0;
#X connect 71 0 77 0;
#X connect 71 0 87 0;
#X connect 72 0 78 0;
#X connect 72 0 79 0;
#X connect 73 0 80 0;
#X connect 73 0 88 0;
#X connect 74 0 82 0;
#X connect 74 0 81 0;
#X connect 75 0 67 0;
#X connect 76 0 71 0;
#X connect 76 1 72 0;
#X connect 76 2 73 0;
#X connect 76 3 74 0;
#X connect 77 0 62 0;
#X connect 78 0 62 0;
#X connect 79 0 62 1;
#X connect 80 0 62 0;
#X connect 81 0 62 0;
#X connect 82 0 62 0;
#X connect 84 0 85 0;
#X connect 86 0 63 1;
#X connect 87 0 62 1;
#X connect 88 0 62 1;
#X connect 90 0 91 0;
#X connect 91 0 93 1;
#X connect 92 0 110 0;
#X connect 93 0 94 0;
#X connect 94 0 114 0;
#X connect 95 0 96 0;
#X connect 96 0 97 1;
#X connect 97 0 99 0;
#X connect 98 0 111 0;
#X connect 99 0 115 0;
#X connect 100 0 103 0;
#X connect 101 0 102 0;
#X connect 102 0 116 0;
#X connect 103 0 101 1;
#X connect 104 0 112 0;
#X connect 105 0 106 0;
#X connect 106 0 107 1;
#X connect 107 0 108 0;
#X connect 108 0 117 0;
#X connect 109 0 113 0;
#X connect 110 0 122 0;
#X connect 111 0 123 0;
#X connect 112 0 124 0;
#X connect 113 0 125 0;
#X connect 114 0 92 0;
#X connect 114 0 144 0;
#X connect 115 0 98 0;
#X connect 115 0 144 1;
#X connect 116 0 104 0;
#X connect 116 0 144 2;
#X connect 117 0 109 0;
#X connect 117 0 144 3;
#X connect 118 0 126 0;
#X connect 119 0 127 0;
#X connect 120 0 128 0;
#X connect 121 0 129 0;
#X connect 122 0 118 0;
#X connect 123 0 119 0;
#X connect 124 0 120 0;
#X connect 125 0 121 0;
#X connect 130 0 93 0;
#X connect 130 0 97 0;
#X connect 130 0 101 0;
#X connect 130 0 107 0;
#X connect 131 0 140 0;
#X connect 131 1 141 0;
#X connect 131 2 142 0;
#X connect 131 3 143 0;
#X connect 132 0 131 0;
#X connect 133 0 131 0;
#X connect 134 0 131 0;
#X connect 135 0 131 0;
#X connect 136 0 131 0;
#X connect 137 0 131 0;
#X connect 138 0 131 0;
#X connect 140 0 90 0;
#X connect 141 0 95 0;
#X connect 142 0 100 0;
#X connect 143 0 105 0;
#X connect 144 0 145 0;
#X connect 146 0 90 1;
#X connect 146 0 95 1;
#X connect 146 0 100 1;
#X connect 146 0 105 1;
#X connect 147 0 148 0;
#X connect 148 0 0 0;
